<svg width="193" height="38" viewBox="0 0 193 38" fill="none" xmlns="http://www.w3.org/2000/svg">
<path d="M0.128 37V28.587L9.528 9.458L9.34 8.988H0.504V1.421H19.539V5.463L8.306 28.681L8.541 29.104H19.21V37H0.128ZM33.0798 37L32.4688 28.775H28.8968L28.3328 37H20.9068L24.7138 1.421H37.1218L40.6938 37H33.0798ZM30.9178 8.847H30.4008L29.2258 21.584H32.1398L30.9178 8.847ZM42.8705 37V1.421H53.4455C55.0435 1.421 56.3595 1.609 57.3935 1.985C58.4588 2.32966 59.3048 2.89367 59.9315 3.677C60.5895 4.429 61.0438 5.416 61.2945 6.638C61.5765 7.82866 61.7175 9.28566 61.7175 11.009C61.7175 12.2937 61.6705 13.3433 61.5765 14.158C61.5138 14.9727 61.3728 15.6463 61.1535 16.179C60.9655 16.7117 60.7148 17.1503 60.4015 17.495C60.0881 17.8397 59.6965 18.1687 59.2265 18.482V18.811C59.6965 19.093 60.1038 19.3593 60.4485 19.61C60.8245 19.8607 61.1378 20.268 61.3885 20.832C61.6705 21.3647 61.8741 22.148 61.9995 23.182C62.1248 24.1847 62.1875 25.5947 62.1875 27.412C62.1875 29.1353 62.0621 30.608 61.8115 31.83C61.5608 33.0207 61.1221 34.0077 60.4955 34.791C59.9001 35.543 59.0855 36.107 58.0515 36.483C57.0175 36.8277 55.7015 37 54.1035 37H42.8705ZM52.5995 29.809C53.3201 29.809 53.8371 29.5897 54.1505 29.151C54.4951 28.7123 54.6675 27.8037 54.6675 26.425C54.6675 24.7957 54.5265 23.6363 54.2445 22.947C53.9625 22.2577 53.4768 21.913 52.7875 21.913H50.2495V29.809H52.5995ZM52.4115 16.038C53.1321 16.038 53.6178 15.756 53.8685 15.192C54.1505 14.628 54.2915 13.547 54.2915 11.949C54.2915 10.539 54.1191 9.61467 53.7745 9.176C53.4611 8.706 52.9441 8.471 52.2235 8.471H50.2495V16.038H52.4115ZM81.4086 34.697C81.0953 35.261 80.7193 35.731 80.2806 36.107C79.8733 36.4517 79.3563 36.7493 78.7296 37C78.103 37.2193 77.3666 37.376 76.5206 37.47C75.6746 37.564 74.6876 37.611 73.5596 37.611C71.2723 37.611 69.5333 37.4073 68.3426 37C67.1833 36.5613 66.2903 35.7937 65.6636 34.697C65.3503 34.1643 65.084 33.5847 64.8646 32.958C64.6453 32.3 64.4573 31.4227 64.3006 30.326C64.1753 29.2293 64.0813 27.8037 64.0186 26.049C63.956 24.263 63.9246 21.9757 63.9246 19.187C63.9246 16.3983 63.956 14.1267 64.0186 12.372C64.0813 10.6173 64.1753 9.19167 64.3006 8.095C64.4573 6.99833 64.6453 6.13667 64.8646 5.51C65.084 4.88333 65.3503 4.288 65.6636 3.724C65.977 3.19133 66.3373 2.737 66.7446 2.361C67.1833 1.985 67.716 1.68733 68.3426 1.468C68.9693 1.21733 69.7056 1.045 70.5516 0.950999C71.429 0.856998 72.4316 0.809998 73.5596 0.809998C75.8156 0.809998 77.5233 1.02933 78.6826 1.468C79.8733 1.90666 80.782 2.65867 81.4086 3.724C81.722 4.288 81.9883 4.88333 82.2076 5.51C82.427 6.13667 82.5993 6.99833 82.7246 8.095C82.8813 9.19167 82.991 10.6173 83.0536 12.372C83.1163 14.1267 83.1476 16.3983 83.1476 19.187C83.1476 21.9757 83.1163 24.263 83.0536 26.049C82.991 27.8037 82.8813 29.2293 82.7246 30.326C82.5993 31.4227 82.427 32.3 82.2076 32.958C81.9883 33.5847 81.722 34.1643 81.4086 34.697ZM75.3926 28.822C75.4553 28.6027 75.518 28.3207 75.5806 27.976C75.6433 27.6313 75.6903 27.1143 75.7216 26.425C75.753 25.7357 75.7686 24.8113 75.7686 23.652C75.8 22.4613 75.8156 20.9103 75.8156 18.999C75.8156 17.025 75.8 15.4427 75.7686 14.252C75.7686 13.0613 75.753 12.1213 75.7216 11.432C75.6903 10.7113 75.6433 10.1787 75.5806 9.834C75.518 9.48933 75.4553 9.20733 75.3926 8.988C75.2673 8.67467 75.0793 8.45533 74.8286 8.33C74.578 8.17333 74.155 8.095 73.5596 8.095C72.9643 8.095 72.5256 8.17333 72.2436 8.33C71.993 8.45533 71.8206 8.67467 71.7266 8.988C71.6326 9.20733 71.5543 9.48933 71.4916 9.834C71.4603 10.1787 71.4133 10.7113 71.3506 11.432C71.3193 12.1213 71.288 13.0613 71.2566 14.252C71.2566 15.4427 71.2566 17.025 71.2566 18.999C71.2566 20.9103 71.2566 22.4613 71.2566 23.652C71.288 24.8113 71.3193 25.7357 71.3506 26.425C71.4133 27.1143 71.4603 27.6313 71.4916 27.976C71.5543 28.3207 71.6326 28.6027 71.7266 28.822C71.8206 29.1353 71.993 29.3547 72.2436 29.48C72.5256 29.6053 72.9643 29.668 73.5596 29.668C74.155 29.668 74.578 29.6053 74.8286 29.48C75.0793 29.3547 75.2673 29.1353 75.3926 28.822ZM97.4415 37C97.3475 36.718 97.2535 36.4203 97.1595 36.107C97.0968 35.7623 97.0185 35.261 96.9245 34.603C96.8305 33.9137 96.7052 32.9737 96.5485 31.783C96.3918 30.5923 96.2038 28.963 95.9845 26.895C95.8905 26.0803 95.7965 25.4223 95.7025 24.921C95.6085 24.4197 95.4988 24.0437 95.3735 23.793C95.2482 23.511 95.0915 23.3387 94.9035 23.276C94.7155 23.182 94.5118 23.135 94.2925 23.135H93.1645V37H85.7855V1.421H96.5485C98.1465 1.421 99.4625 1.609 100.497 1.985C101.531 2.32966 102.345 2.89367 102.941 3.677C103.567 4.429 103.99 5.416 104.21 6.638C104.46 7.82866 104.586 9.28566 104.586 11.009C104.586 12.8577 104.523 14.3147 104.398 15.38C104.272 16.414 104.069 17.2287 103.787 17.824C103.536 18.4193 103.223 18.8737 102.847 19.187C102.471 19.469 102.032 19.751 101.531 20.033V20.315C101.719 20.4717 101.907 20.644 102.095 20.832C102.314 21.02 102.502 21.3333 102.659 21.772C102.909 22.336 103.16 23.1977 103.411 24.357C103.693 25.485 103.959 27.083 104.21 29.151C104.398 30.5923 104.539 31.7517 104.633 32.629C104.727 33.5063 104.805 34.2113 104.868 34.744C104.962 35.2767 105.024 35.684 105.056 35.966C105.118 36.248 105.197 36.5143 105.291 36.765V37H97.4415ZM95.2325 16.508C95.9218 16.508 96.4075 16.226 96.6895 15.662C96.9715 15.0667 97.1125 13.9387 97.1125 12.278C97.1125 10.868 96.9402 9.928 96.5955 9.458C96.2822 8.988 95.7652 8.753 95.0445 8.753H93.1645V16.508H95.2325ZM125.412 23.37C125.506 24.498 125.553 25.5633 125.553 26.566C125.553 28.446 125.444 30.091 125.224 31.501C125.036 32.8797 124.613 34.0233 123.955 34.932C123.297 35.8407 122.357 36.5143 121.135 36.953C119.945 37.3917 118.362 37.611 116.388 37.611C114.038 37.611 112.237 37.4073 110.983 37C109.761 36.5613 108.853 35.7937 108.257 34.697C107.944 34.1957 107.678 33.6003 107.458 32.911C107.239 32.2217 107.051 31.2973 106.894 30.138C106.769 28.9787 106.675 27.506 106.612 25.72C106.55 23.934 106.518 21.6623 106.518 18.905C106.518 16.1477 106.55 13.9073 106.612 12.184C106.675 10.4607 106.769 9.05067 106.894 7.954C107.051 6.85733 107.239 5.99566 107.458 5.369C107.678 4.74233 107.944 4.16267 108.257 3.63C108.884 2.56467 109.793 1.82833 110.983 1.421C112.174 1.01366 113.897 0.809998 116.153 0.809998C118.159 0.809998 119.772 0.997998 120.994 1.374C122.216 1.75 123.156 2.361 123.814 3.207C124.472 4.053 124.911 5.14966 125.13 6.497C125.35 7.813 125.459 9.411 125.459 11.291C125.459 11.7297 125.444 12.2153 125.412 12.748C125.412 13.2807 125.397 13.8447 125.365 14.44H118.456C118.456 13.5 118.441 12.7167 118.409 12.09C118.409 11.4633 118.394 10.9463 118.362 10.539C118.331 10.1317 118.284 9.81833 118.221 9.599C118.19 9.34833 118.159 9.14467 118.127 8.988C118.002 8.39267 117.344 8.095 116.153 8.095C115.558 8.095 115.119 8.17333 114.837 8.33C114.587 8.45533 114.414 8.67467 114.32 8.988C114.226 9.23867 114.148 9.53633 114.085 9.881C114.054 10.1943 114.007 10.6957 113.944 11.385C113.913 12.043 113.882 12.9673 113.85 14.158C113.85 15.3487 113.85 16.8997 113.85 18.811C113.85 20.785 113.85 22.3673 113.85 23.558C113.882 24.7487 113.913 25.6887 113.944 26.378C114.007 27.0673 114.054 27.5843 114.085 27.929C114.148 28.2737 114.226 28.5713 114.32 28.822C114.414 29.1353 114.602 29.3547 114.884 29.48C115.166 29.6053 115.668 29.668 116.388 29.668C117.328 29.668 117.892 29.4017 118.08 28.869C118.206 28.5557 118.3 28.2267 118.362 27.882C118.425 27.5373 118.472 27.1613 118.503 26.754C118.535 26.3153 118.55 25.8297 118.55 25.297C118.582 24.733 118.597 24.0907 118.597 23.37H125.412ZM140.412 37V22.383H135.806V37H128.239V1.421H135.806V15.192H140.412V1.421H147.979V37H140.412ZM151.193 37V1.421H158.76V37H151.193ZM174.477 37L170.012 21.02H169.542C169.604 21.4273 169.636 21.866 169.636 22.336C169.636 22.7747 169.636 23.2133 169.636 23.652V37H162.069V1.421H169.636V14.393C169.636 14.769 169.62 15.1137 169.589 15.427C169.589 15.709 169.573 16.0067 169.542 16.32H170.012L174.759 1.421H182.514V1.656L177.109 17.542L182.937 36.765V37H174.477ZM185.112 37V1.421H192.679V37H185.112Z" fill="white"/>
</svg>
